<?xml version="1.0" encoding="utf-8"?>
<!-- Generator: Adobe Illustrator 16.0.0, SVG Export Plug-In . SVG Version: 6.00 Build 0)  -->
<!DOCTYPE svg PUBLIC "-//W3C//DTD SVG 1.1//EN" "http://www.w3.org/Graphics/SVG/1.1/DTD/svg11.dtd">
<svg version="1.1" id="Layer_1" xmlns="http://www.w3.org/2000/svg" xmlns:xlink="http://www.w3.org/1999/xlink" x="0px" y="0px"
	 width="110px" height="33px" viewBox="0 0 110 33" enable-background="new 0 0 110 33" xml:space="preserve">
<path fill="#010101" d="M34.037,32.027h0.403c0.633,0,1.065-0.028,1.295-0.086c0.26-0.058,0.461-0.144,0.605-0.288
	c0.23-0.172,0.375-0.373,0.489-0.662c0.115-0.288,0.173-0.604,0.173-0.949c0-0.375-0.058-0.691-0.173-0.95
	c-0.115-0.261-0.259-0.49-0.489-0.663c-0.144-0.144-0.345-0.23-0.605-0.288c-0.259-0.058-0.691-0.086-1.295-0.086h-0.403V32.027z
	 M33.432,32.604v-5.126h0.979c0.72,0,1.238,0.028,1.555,0.115c0.288,0.058,0.547,0.202,0.777,0.346
	c0.289,0.23,0.519,0.518,0.663,0.892c0.144,0.347,0.23,0.749,0.23,1.211c0,0.46-0.086,0.863-0.23,1.209s-0.374,0.662-0.663,0.864
	c-0.23,0.173-0.489,0.316-0.777,0.374c-0.289,0.086-0.72,0.115-1.325,0.115h-0.23H33.432z M41.466,32.604v-5.126H42.1v5.126H41.466z
	 M48.031,29.752c0.346,0.144,0.576,0.347,0.749,0.576c0.173,0.23,0.259,0.519,0.259,0.836c0,0.46-0.144,0.834-0.432,1.151
	c-0.316,0.288-0.72,0.432-1.209,0.432c-0.403,0-0.749-0.115-1.008-0.316c-0.288-0.201-0.461-0.519-0.547-0.893l0.547-0.259
	c0.058,0.287,0.201,0.546,0.375,0.69c0.172,0.173,0.374,0.26,0.633,0.26c0.316,0,0.547-0.087,0.749-0.289
	c0.173-0.173,0.288-0.402,0.288-0.69c0-0.201-0.086-0.403-0.202-0.576c-0.144-0.173-0.345-0.316-0.605-0.432l-0.633-0.259
	c-0.316-0.146-0.576-0.347-0.749-0.576c-0.173-0.202-0.259-0.489-0.259-0.807c0-0.346,0.145-0.662,0.403-0.894
	c0.288-0.229,0.633-0.345,1.037-0.345c0.317,0,0.576,0.058,0.806,0.173c0.23,0.144,0.403,0.346,0.547,0.604l-0.518,0.316
	c-0.115-0.201-0.23-0.345-0.374-0.46c-0.144-0.086-0.317-0.144-0.49-0.144c-0.23,0-0.432,0.086-0.576,0.229
	c-0.144,0.115-0.202,0.316-0.202,0.519c0,0.201,0.058,0.346,0.173,0.49c0.086,0.114,0.259,0.229,0.518,0.345L48.031,29.752z
	 M53.589,32.604v-4.55h-1.439v-0.576h3.514v0.576h-1.47v4.55H53.589z M59.176,32.604v-5.126h1.209c0.346,0,0.576,0.028,0.749,0.058
	c0.144,0.028,0.288,0.086,0.432,0.201c0.144,0.116,0.259,0.26,0.345,0.461c0.088,0.201,0.116,0.432,0.116,0.663
	c0,0.432-0.116,0.748-0.346,0.978c-0.23,0.203-0.575,0.318-1.037,0.318h-0.115l1.959,2.447h-0.778l-1.872-2.447h-0.086v2.447H59.176
	z M59.751,27.997v1.698h0.49c0.46,0,0.777-0.058,0.95-0.173c0.144-0.114,0.23-0.345,0.23-0.633c0-0.346-0.087-0.576-0.23-0.691
	c-0.173-0.144-0.49-0.201-0.95-0.201H59.751z M65.856,32.604v-5.126h0.604v5.126H65.856z M70.55,32.604v-5.126h1.065
	c0.375,0,0.662,0.028,0.835,0.058c0.173,0.028,0.317,0.086,0.461,0.201c0.145,0.116,0.288,0.26,0.374,0.461
	c0.087,0.201,0.145,0.403,0.145,0.633c0,0.261-0.087,0.49-0.202,0.663c-0.144,0.201-0.316,0.316-0.576,0.402
	c0.317,0.03,0.548,0.174,0.721,0.404c0.172,0.23,0.259,0.489,0.259,0.835c0,0.23-0.029,0.403-0.115,0.604
	c-0.058,0.173-0.173,0.346-0.288,0.49c-0.144,0.115-0.345,0.229-0.547,0.287s-0.576,0.087-1.065,0.087H70.55z M71.126,30.213v1.872
	h0.489c0.317,0,0.547-0.029,0.691-0.059c0.144-0.028,0.259-0.057,0.345-0.114c0.116-0.087,0.202-0.202,0.26-0.316
	c0.058-0.145,0.087-0.288,0.087-0.461c0-0.174-0.029-0.346-0.115-0.461c-0.058-0.144-0.174-0.259-0.317-0.346
	c-0.087-0.028-0.173-0.086-0.288-0.086c-0.086-0.029-0.259-0.029-0.489-0.029h-0.173H71.126z M71.126,27.997v1.728h0.489
	c0.432,0,0.749-0.058,0.921-0.202c0.173-0.114,0.26-0.316,0.26-0.633c0-0.317-0.087-0.547-0.26-0.691
	c-0.144-0.115-0.46-0.201-0.921-0.201H71.126z M77.403,27.478h0.604v3.196c0,0.519,0.115,0.893,0.346,1.123
	c0.201,0.259,0.547,0.375,1.037,0.375c0.46,0,0.806-0.116,1.036-0.375c0.202-0.23,0.316-0.604,0.316-1.123v-3.196h0.635v3.196
	c0,0.691-0.174,1.209-0.52,1.556c-0.316,0.345-0.807,0.518-1.468,0.518c-0.663,0-1.181-0.173-1.498-0.518
	c-0.346-0.347-0.489-0.864-0.489-1.556V27.478z M86.301,32.604v-4.55h-1.439v-0.576h3.513v0.576h-1.439v4.55H86.301z M91.888,32.604
	v-5.126h0.634v5.126H91.888z M99.087,32.172c0.287,0,0.546-0.058,0.806-0.174c0.26-0.086,0.489-0.259,0.691-0.46
	c0.202-0.202,0.346-0.432,0.461-0.691c0.086-0.23,0.144-0.519,0.144-0.806c0-0.289-0.058-0.548-0.144-0.807
	c-0.115-0.259-0.259-0.49-0.461-0.691s-0.432-0.346-0.691-0.461c-0.26-0.114-0.519-0.144-0.806-0.144
	c-0.288,0-0.548,0.029-0.807,0.144c-0.259,0.115-0.489,0.26-0.662,0.461c-0.202,0.201-0.375,0.433-0.461,0.691
	c-0.115,0.259-0.173,0.518-0.173,0.807c0,0.287,0.058,0.575,0.173,0.806c0.086,0.26,0.259,0.489,0.461,0.691
	c0.201,0.201,0.432,0.374,0.662,0.46C98.539,32.115,98.799,32.172,99.087,32.172L99.087,32.172z M101.822,30.042
	c0,0.374-0.059,0.719-0.202,1.036c-0.115,0.346-0.316,0.633-0.575,0.863c-0.259,0.26-0.576,0.461-0.893,0.605
	c-0.346,0.115-0.691,0.201-1.065,0.201c-0.346,0-0.691-0.086-1.037-0.201c-0.346-0.145-0.634-0.346-0.893-0.605
	c-0.259-0.23-0.461-0.518-0.604-0.863c-0.145-0.317-0.202-0.662-0.202-1.036c0-0.347,0.058-0.691,0.202-1.037
	c0.144-0.317,0.346-0.605,0.604-0.864s0.547-0.433,0.893-0.576s0.691-0.201,1.037-0.201c0.374,0,0.72,0.058,1.065,0.201
	c0.345,0.144,0.634,0.317,0.893,0.576s0.46,0.547,0.575,0.864C101.764,29.321,101.822,29.667,101.822,30.042L101.822,30.042z
	 M105.681,32.604v-5.327l3.744,4.089v-3.888H110v5.327l-3.743-4.061v3.859H105.681z"/>
<path fill="#44BB92" d="M33.432,24.368V3.26h10.654v3.831H37.55v3.945h6.623v3.887H37.55v9.445H33.432z M58.802,16.018l-2.65-6.883
	l-2.821,6.883H58.802z M45.67,24.368L53.963,3.26h4.348l7.976,21.107h-4.231l-1.786-4.262h-8.466l-1.67,4.262H45.67z M83.421,24.368
	H78.9l-4.895-9.157v9.157h-4.291V3.26h5.125c2.42,0,4.204,0.26,5.414,1.239c3.743,2.995,2.448,9.502-1.843,10.453L83.421,24.368z
	 M73.948,11.554h0.604c1.613,0,2.679-0.173,3.197-0.49s0.777-0.864,0.777-1.642c0-0.835-0.288-1.44-0.835-1.785
	c-0.547-0.346-1.612-0.518-3.14-0.518h-0.604V11.554z M84.948,24.368L88.489,3.26h4.176l4.779,14.831l4.982-14.831h4.031L110,24.368
	h-4.031l-2.074-13.361L99.23,24.368h-3.6l-4.435-13.217l-2.245,13.217H84.948z"/>
<path fill-rule="evenodd" clip-rule="evenodd" fill="#010101" d="M0,32.489L13.851,3.721c0.173-0.316,0.663-0.345,0.893,0
	l13.448,28.768h-5.385l-8.581-18.4l-8.582,18.4H0z"/>
<path fill-rule="evenodd" clip-rule="evenodd" fill="#44BB92" d="M14.225,14.088c2.361-1.584,3.887-4.118,3.83-6.768
	c-0.086-4.146-2.131-6.047-4.549-6.018C11.057,1.36,9.502,2.397,9.301,4.096c-0.288,2.649,0.346,4.896-2.274,4.78
	C4.665,8.732,3.283,6.457,5.471,3.347c3.283-4.665,14.282-3.859,16.73,0.058c3.283,5.183-0.346,10.223-4.78,11.346
	c-1.123,0.259-2.534,0.604-4.002,1.065 M6.018,19.991c-0.893,0.576-1.67,1.987-1.785,3.571c-0.029,0.662,0,1.469,0.086,2.16
	c0.086-1.095-0.029-2.305,0.662-3.168c2.074-2.592,5.645-2.506,9.704-0.72c4.118,1.785,7.43,2.131,9.877-0.807
	c0.058-0.087,0.173-0.115,0.259-0.087c0.115,0.058,0.173,0.145,0.173,0.23c0.259,8.438-5.442,7.92-11.835,5.645
	c-3.888-1.383-8.178-2.822-8.063,2.966c-3.283-5.472-1.785-9.964,2.304-12.698L6.018,19.991z"/>
</svg>
