<svg xmlns="http://www.w3.org/2000/svg" version="1.1" xmlns:xlink="http://www.w3.org/1999/xlink" width="512" height="512" x="0" y="0" viewBox="0 0 512 512" style="enable-background:new 0 0 512 512" xml:space="preserve" class=""><g><path d="M256 279.31a7.5 7.5 0 0 0 7.5-7.5v-11.234h11.233c4.143 0 7.5-3.357 7.5-7.5a7.5 7.5 0 0 0-7.5-7.5H263.5v-11.234a7.5 7.5 0 0 0-15 0v11.234h-11.234a7.5 7.5 0 0 0 0 15H248.5v11.234a7.5 7.5 0 0 0 7.5 7.5z" fill="#ffffff" opacity="1" data-original="#000000" class=""></path><path d="M504.5 462.975h-12.264v-367.1c0-11.158-9.078-20.236-20.236-20.236h-17.347c-18.524 0-36.359-5.585-51.575-16.152l-9.55-6.632c-17.739-12.319-38.532-18.831-60.131-18.831h-90.2a7.5 7.5 0 0 0 0 15h90.2c18.525 0 36.359 5.585 51.574 16.151l9.55 6.632c17.741 12.32 38.534 18.832 60.132 18.832H472a5.241 5.241 0 0 1 5.236 5.236v367.099h-30.764V275.447c0-4.143-3.357-7.5-7.5-7.5s-7.5 3.357-7.5 7.5v187.527h-29.587V305.343c0-6.827-5.555-12.382-12.382-12.382H122.497c-6.827 0-12.382 5.555-12.382 12.382v65.625c0 4.143 3.358 7.5 7.5 7.5s7.5-3.357 7.5-7.5v-63.007h71.346v155.014h-71.346v-63.007c0-4.143-3.358-7.5-7.5-7.5s-7.5 3.357-7.5 7.5v63.007H80.527v-246.17h350.945v29.642c0 4.142 3.357 7.5 7.5 7.5s7.5-3.358 7.5-7.5v-37.142a7.5 7.5 0 0 0-7.5-7.5H73.027a7.5 7.5 0 0 0-7.5 7.5v253.67H34.764v-367.1A5.242 5.242 0 0 1 40 90.639h17.347c21.598 0 42.391-6.512 60.131-18.832l9.55-6.632c15.216-10.566 33.05-16.151 51.575-16.151h35.594a7.5 7.5 0 0 0 0-15h-35.594c-21.598 0-42.391 6.512-60.131 18.831l-9.55 6.632C93.706 70.054 75.872 75.64 57.347 75.64H40c-11.158 0-20.236 9.078-20.236 20.236v367.099H7.5c-4.142 0-7.5 3.357-7.5 7.5s3.358 7.5 7.5 7.5h497c4.143 0 7.5-3.357 7.5-7.5s-3.358-7.5-7.5-7.5zM300.539 307.961v24.009h-89.078v-24.009zm-89.078 155.014V346.97h89.078v116.005zm104.078 0V307.961h71.347v155.014z" fill="#ffffff" opacity="1" data-original="#000000" class=""></path><path d="M320.074 74.318H191.926a7.5 7.5 0 0 0 0 15h128.147c4.143 0 7.5-3.358 7.5-7.5s-3.357-7.5-7.499-7.5zM381.757 175.546c-14.017 0-25.42-11.403-25.42-25.42s11.403-25.42 25.42-25.42a25.304 25.304 0 0 1 14.219 4.346 7.5 7.5 0 0 1-8.398 12.429 10.357 10.357 0 0 0-5.82-1.775c-5.745 0-10.42 4.675-10.42 10.42s4.675 10.42 10.42 10.42c2.008 0 3.594-.543 4.849-1.66.242-.216.477-.458.693-.717a7.5 7.5 0 0 1 11.496 9.636 21.955 21.955 0 0 1-2.211 2.28c-4.013 3.574-9.139 5.461-14.828 5.461zM90.646 108.745H76.222c-4.03-.079-7.569 3.477-7.5 7.5v51.802a7.5 7.5 0 0 0 15 0v-15.041c2.605-.013 5.291-.024 6.924-.024 12.354 0 22.405-9.922 22.405-22.118 0-12.197-10.051-22.119-22.405-22.119zm0 29.236c-1.622 0-4.275.011-6.864.023-.013-2.69-.03-11.436-.038-14.26h6.902c4.014 0 7.405 3.26 7.405 7.119s-3.391 7.118-7.405 7.118zM438.229 125.117a7.497 7.497 0 0 0-9.539 4.638l-6.203 17.943-6.38-17.998a7.5 7.5 0 1 0-14.138 5.012l12.66 35.716-4.416 12.772a7.5 7.5 0 0 0 7.088 9.953 7.502 7.502 0 0 0 7.088-5.051l18.478-53.444a7.504 7.504 0 0 0-4.638-9.541zM235.346 129.12a7.5 7.5 0 0 0-10.582-.717c-.019.017-.118.103-.275.244a7.5 7.5 0 0 0-14.102 3.559v35.841a7.5 7.5 0 0 0 15 0V148.45l.466-.399c1.07-.91 8.707-8.288 8.779-8.351a7.5 7.5 0 0 0 .714-10.58zM295.59 130.375c-3.255-3.405-7.767-5.132-13.41-5.132-4.556 0-8.525 1.314-11.693 3.66-3.687-3.125-8.121-3.846-11.42-3.846-2.783 0-5.368.543-7.703 1.545a7.47 7.47 0 0 0-5.215-2.117 7.5 7.5 0 0 0-7.5 7.5v36.06a7.5 7.5 0 0 0 15 0v-18.589c0-.02.003-.038.003-.058 0-4.309-.178-9.384 4.558-9.341 4.14.025 4.261 4.73 4.225 7.694.021.737.01 20.294.01 20.294 0 4.142 3.357 7.5 7.5 7.5s7.5-3.358 7.5-7.5l.01-21.077c-.073-6.113 2.76-6.726 4.294-6.726 3.701-.05 3.979 3.411 4.151 9.133-.005.113-.008 18.67-.008 18.67 0 4.142 3.357 7.5 7.5 7.5s7.5-3.358 7.5-7.5v-18.167c.247-5.788-.063-14.024-5.302-19.503zM156.507 149.74c.048-9.339-1.87-15.639-6.037-19.829-3.276-3.293-7.713-4.963-13.188-4.963-2.103 0-4.104.318-5.979.908v-11.254a7.5 7.5 0 0 0-15 0v53.444a7.5 7.5 0 0 0 15 0V149.7c0-5.742 1.358-9.805 5.136-9.752 3.573-.021 4.934 4.145 5.069 9.78l.067 18.346a7.5 7.5 0 0 0 7.5 7.473h.028a7.5 7.5 0 0 0 7.473-7.527zM199.853 124.201a7.495 7.495 0 0 0-6.671 4.083 23.392 23.392 0 0 0-9.369-1.95c-12.98 0-23.54 10.56-23.54 23.54s10.56 23.54 23.54 23.54a23.41 23.41 0 0 0 9.369-1.95 7.494 7.494 0 0 0 6.671 4.083 7.5 7.5 0 0 0 7.5-7.5v-36.346a7.5 7.5 0 0 0-7.5-7.5zm-16.04 34.213c-4.709 0-8.54-3.831-8.54-8.54s3.831-8.54 8.54-8.54 8.54 3.831 8.54 8.54-3.831 8.54-8.54 8.54zM344.547 124.201a7.494 7.494 0 0 0-6.671 4.083 23.392 23.392 0 0 0-9.369-1.95c-12.979 0-23.539 10.56-23.539 23.54s10.56 23.54 23.539 23.54a23.41 23.41 0 0 0 9.369-1.95 7.494 7.494 0 0 0 6.671 4.083 7.5 7.5 0 0 0 7.5-7.5v-36.346a7.5 7.5 0 0 0-7.5-7.5zm-16.04 34.213c-4.708 0-8.539-3.831-8.539-8.54s3.831-8.54 8.539-8.54c4.709 0 8.54 3.831 8.54 8.54s-3.831 8.54-8.54 8.54z" fill="#ffffff" opacity="1" data-original="#000000" class=""></path></g></svg>