<svg xmlns="http://www.w3.org/2000/svg" version="1.1" xmlns:xlink="http://www.w3.org/1999/xlink" width="512" height="512" x="0" y="0" viewBox="0 0 60 60" style="enable-background:new 0 0 512 512" xml:space="preserve" class=""><g><path d="M7.173 13.072a4.008 4.008 0 0 1 0-5.662A1 1 0 0 0 5.759 6a6.01 6.01 0 0 0 0 8.49L7.7 16.429a1 1 0 0 0 1.414-1.414zM52.827 6a1 1 0 0 0 0 1.414 4.009 4.009 0 0 1 0 5.661l-1.943 1.943a1 1 0 1 0 1.416 1.411l1.943-1.943a6.008 6.008 0 0 0 0-8.489A1 1 0 0 0 52.827 6z" fill="#ffffff" opacity="1" data-original="#000000" class=""></path><path d="M56.832 2.93a10.012 10.012 0 0 0-14.146 0L30 15.615 17.314 2.93a10.014 10.014 0 0 0-14.147 0l-.237.237a10 10 0 0 0 0 14.146L15.615 30a2 2 0 0 0 2.829 0L30 18.443 41.556 30a2 2 0 0 0 2.829 0L57.07 17.314a10 10 0 0 0 0-14.145zm-39.8 25.656L4.344 15.9a8 8 0 0 1 0-11.319l.237-.237a8.013 8.013 0 0 1 11.318 0l12.687 12.685zM55.656 15.9 42.97 28.586 31.414 17.029 44.1 4.344a8.012 8.012 0 0 1 11.317 0l.239.239a8 8 0 0 1 0 11.318z" fill="#ffffff" opacity="1" data-original="#000000" class=""></path><path d="M30 33a4 4 0 1 0-4-4 4 4 0 0 0 4 4zm0-6a2 2 0 1 1-2 2 2 2 0 0 1 2-2zM13 43a4 4 0 1 0 4 4 4 4 0 0 0-4-4zm0 6a2 2 0 1 1 2-2 2 2 0 0 1-2 2zM47 43a4 4 0 1 0 4 4 4 4 0 0 0-4-4zm0 6a2 2 0 1 1 2-2 2 2 0 0 1-2 2zM23 38a4 4 0 1 0-4 4 4 4 0 0 0 4-4zm-4 2a2 2 0 1 1 2-2 2 2 0 0 1-2 2zM45 38a4 4 0 1 0-4 4 4 4 0 0 0 4-4zm-4 2a2 2 0 1 1 2-2 2 2 0 0 1-2 2zM38 46h-4v-4a2 2 0 0 0-2-2h-4a2 2 0 0 0-2 2v4h-4a2 2 0 0 0-2 2v4a2 2 0 0 0 2 2h4v4a2 2 0 0 0 2 2h4a2 2 0 0 0 2-2v-4h4a2 2 0 0 0 2-2v-4a2 2 0 0 0-2-2zm0 6h-4a2 2 0 0 0-2 2v4h-4v-4a2 2 0 0 0-2-2h-4v-4h4a2 2 0 0 0 2-2v-4h4v4a2 2 0 0 0 2 2h4z" fill="#ffffff" opacity="1" data-original="#000000" class=""></path></g></svg>